<svg width="30" height="30" viewBox="0 0 30 30" fill="none" xmlns="http://www.w3.org/2000/svg">
<path fill-rule="evenodd" clip-rule="evenodd" d="M30 15C30 23.2843 23.2843 30 15 30C6.71573 30 0 23.2843 0 15C0 6.71573 6.71573 0 15 0C23.2843 0 30 6.71573 30 15ZM10.6157 12.0748C10.6994 11.4129 11.5596 10.5133 12.2423 10.6131L12.2413 10.612C12.8119 10.7205 13.2804 11.5793 13.5891 12.1453C13.6399 12.2383 13.6863 12.3234 13.7281 12.396C13.9383 12.7691 13.8018 13.147 13.6058 13.3065C13.5831 13.3248 13.5594 13.3437 13.5349 13.3631C13.2742 13.5701 12.9354 13.839 13.0147 14.1089C13.1689 14.6338 15 16.4648 15.9006 16.9854C16.1763 17.1447 16.3907 16.8352 16.5743 16.5702C16.6177 16.5075 16.6594 16.4474 16.6997 16.3965C16.8531 16.1917 17.2314 16.0693 17.6036 16.2715C18.1595 16.5952 18.6832 16.9715 19.1675 17.395C19.4093 17.5972 19.4661 17.8959 19.2985 18.2117C19.0033 18.7678 18.1496 19.5012 17.5299 19.3521C16.4476 19.0919 12.0703 17.395 10.6643 12.479C10.5907 12.2625 10.6029 12.1713 10.6134 12.0922L10.6157 12.0748ZM12.8027 22.6904C13.608 22.9605 14.1038 23.0566 15 23.0566C19.4495 23.0566 23.0566 19.4495 23.0566 15C23.0566 10.5504 19.4495 6.94336 15 6.94336C10.5504 6.94336 6.94336 10.5504 6.94336 15C6.94336 17.3267 7.56339 19.0225 9.14062 20.4932V22.1513C9.14062 23.2403 10.2866 23.9485 11.2606 23.4615L12.8027 22.6904ZM10.1396 19.4218L10.6055 19.8562V22.1513L12.6918 21.1082L13.2685 21.3016C13.9395 21.5266 14.2781 21.5918 15 21.5918C18.6406 21.5918 21.5918 18.6406 21.5918 15C21.5918 11.3595 18.6406 8.4082 15 8.4082C11.3595 8.4082 8.4082 11.3595 8.4082 15C8.4082 17.0018 8.91421 18.2792 10.1396 19.4218Z" fill="#03729E"/>
</svg>
